<svg width="25" height="25" viewBox="0 0 25 25" fill="none" xmlns="http://www.w3.org/2000/svg">
<path fill-rule="evenodd" clip-rule="evenodd" d="M11.6645 3.31018H12.0742V11.5134C12.0742 12.2084 12.3546 12.4789 12.5733 12.6067C12.5937 12.6186 12.6146 12.6295 12.6355 12.64C12.6435 12.3563 12.6452 12.0725 12.6404 11.7888C12.6355 11.3289 12.6295 10.7512 12.6737 10.1531C12.9254 10.6165 13.249 11.037 13.6323 11.399C13.6323 11.5208 13.6338 11.6397 13.6348 11.7545C13.6362 11.8912 13.6372 12.023 13.6372 12.1473C13.6372 12.5639 13.6208 13.0044 13.6034 13.4662C13.5746 14.2433 13.5438 15.081 13.5845 15.969C13.6159 16.6416 13.6889 17.2586 13.8252 17.7752C13.9634 18.2992 14.1478 18.6452 14.3477 18.8505C14.9353 19.4551 15.8635 19.9428 16.8067 20.1312C17.7329 20.3162 18.4637 20.179 18.8898 19.8508L18.8947 19.8394C18.9216 19.7698 18.9549 19.648 18.9822 19.4625C19.0369 19.0902 19.0509 18.5711 19.0141 17.9313C18.941 16.6575 18.675 15.0428 18.2549 13.4533C18.1847 13.1873 18.1101 12.9224 18.0312 12.6589C18.3568 12.5933 18.6749 12.495 18.9808 12.3655C20.0347 15.8765 20.3957 19.8722 19.5883 20.5638C18.0998 21.8395 15.1238 21.0744 13.6352 19.5441C12.4967 18.3733 12.5301 15.7209 12.6002 13.6825C12.4152 13.6343 12.2375 13.5612 12.0722 13.4653C11.8846 13.3564 11.7171 13.2161 11.577 13.0506C11.4293 13.2256 11.2588 13.3618 11.0818 13.4653C10.8944 13.5746 10.7099 13.6413 10.5538 13.6825C10.6239 15.7209 10.6572 18.3733 9.51873 19.5441C8.03072 21.0744 5.0542 21.8395 3.56569 20.5643C2.07767 19.289 4.55803 6.79033 8.03022 6.79033C10.5658 6.79033 10.531 10.093 10.5136 11.7888C10.5126 11.9181 10.5111 12.0384 10.5111 12.1468C10.5111 12.2999 10.5141 12.465 10.5185 12.64C10.5394 12.63 10.5603 12.6186 10.5807 12.6067C10.7994 12.4789 11.0798 12.2084 11.0798 11.5134V3.31018H11.6645ZM8.03022 7.78466C8.44933 7.78466 8.68051 7.91839 8.84557 8.09389C9.04145 8.30171 9.20949 8.64177 9.32782 9.12949C9.53514 9.98163 9.52668 10.963 9.51923 11.7545C9.51823 11.8917 9.51674 12.023 9.51674 12.1473C9.51674 12.5639 9.53315 13.0044 9.55055 13.4662C9.57938 14.2433 9.61021 15.081 9.56944 15.969C9.53862 16.6416 9.46504 17.2586 9.32881 17.7752C9.1906 18.2992 9.00615 18.6452 8.80629 18.8505C8.21865 19.4551 7.29094 19.9428 6.34732 20.1312C5.4211 20.3162 4.69027 20.179 4.2642 19.8508L4.25923 19.8394C4.21675 19.7172 4.18742 19.5909 4.17173 19.4625C4.11704 19.0902 4.10312 18.5711 4.13991 17.9313C4.21299 16.6575 4.47898 15.0428 4.89908 13.4533C5.32117 11.8574 5.88197 10.35 6.51685 9.26571C6.83504 8.72231 7.14626 8.32856 7.43163 8.08146C7.71502 7.83587 7.9109 7.78466 8.03022 7.78466ZM4.27663 19.8792L4.27862 19.8817L4.27713 19.8792H4.27663ZM18.8768 19.8792C18.8764 19.88 18.8759 19.8809 18.8754 19.8817L18.8759 19.8807L18.8768 19.8792Z" fill="white"/>
<path fill-rule="evenodd" clip-rule="evenodd" d="M15.6751 5.71052C15.9403 5.53479 16.2369 5.4119 16.5486 5.34858V4.8017C16.4168 4.8017 16.2903 4.74932 16.1971 4.65609C16.1038 4.56285 16.0515 4.43639 16.0515 4.30454C16.0515 4.17268 16.1038 4.04623 16.1971 3.95299C16.2903 3.85975 16.4168 3.80737 16.5486 3.80737H17.543C17.6748 3.80737 17.8013 3.85975 17.8945 3.95299C17.9877 4.04623 18.0401 4.17268 18.0401 4.30454C18.0401 4.43639 17.9877 4.56285 17.8945 4.65609C17.8013 4.74932 17.6748 4.8017 17.543 4.8017V5.34858C17.8601 5.41321 18.156 5.5375 18.4165 5.71052L18.8286 5.29887C18.7381 5.2051 18.688 5.07951 18.6891 4.94916C18.6902 4.8188 18.7425 4.69411 18.8347 4.60193C18.9269 4.50975 19.0516 4.45747 19.1819 4.45633C19.3123 4.4552 19.4378 4.50531 19.5316 4.59588L20.2346 5.29887C20.2821 5.34473 20.32 5.39959 20.346 5.46024C20.3721 5.5209 20.3858 5.58614 20.3864 5.65215C20.3869 5.71816 20.3744 5.78363 20.3494 5.84473C20.3244 5.90583 20.2874 5.96134 20.2408 6.00802C20.1941 6.0547 20.1386 6.09161 20.0775 6.11661C20.0164 6.14161 19.9509 6.15419 19.8849 6.15362C19.8189 6.15304 19.7536 6.13933 19.693 6.11327C19.6323 6.08721 19.5775 6.04934 19.5316 6.00186L19.12 6.414C19.2925 6.67452 19.4173 6.97033 19.4819 7.28752H20.0288C20.0288 7.15567 20.0812 7.02921 20.1744 6.93597C20.2676 6.84274 20.3941 6.79036 20.5259 6.79036C20.6578 6.79036 20.7843 6.84274 20.8775 6.93597C20.9707 7.02921 21.0231 7.15567 21.0231 7.28752V8.28185C21.0231 8.41371 20.9707 8.54016 20.8775 8.6334C20.7843 8.72664 20.6578 8.77901 20.5259 8.77901C20.3941 8.77901 20.2676 8.72664 20.1744 8.6334C20.0812 8.54016 20.0288 8.41371 20.0288 8.28185H19.4819C19.4186 8.5936 19.2957 8.8902 19.12 9.15537L19.5316 9.56752C19.5775 9.52003 19.6323 9.48216 19.693 9.4561C19.7536 9.43005 19.8189 9.41633 19.8849 9.41576C19.9509 9.41518 20.0164 9.42776 20.0775 9.45276C20.1386 9.47776 20.1941 9.51467 20.2408 9.56135C20.2874 9.60803 20.3244 9.66354 20.3494 9.72464C20.3744 9.78574 20.3869 9.85121 20.3864 9.91722C20.3858 9.98324 20.3721 10.0485 20.346 10.1091C20.32 10.1698 20.2821 10.2246 20.2346 10.2705L19.5316 10.9735C19.4378 11.0641 19.3123 11.1142 19.1819 11.113C19.0516 11.1119 18.9269 11.0596 18.8347 10.9674C18.7425 10.8753 18.6902 10.7506 18.6891 10.6202C18.688 10.4899 18.7381 10.3643 18.8286 10.2705L18.4165 9.85886C18.1513 10.0346 17.8547 10.1575 17.543 10.2208V10.7677C17.6748 10.7677 17.8013 10.8201 17.8945 10.9133C17.9877 11.0065 18.0401 11.133 18.0401 11.2648C18.0401 11.3967 17.9877 11.5231 17.8945 11.6164C17.8013 11.7096 17.6748 11.762 17.543 11.762H16.5486C16.4168 11.762 16.2903 11.7096 16.1971 11.6164C16.1038 11.5231 16.0515 11.3967 16.0515 11.2648C16.0515 11.133 16.1038 11.0065 16.1971 10.9133C16.2903 10.8201 16.4168 10.7677 16.5486 10.7677V10.2208C16.2369 10.1575 15.9403 10.0346 15.6751 9.85886L15.263 10.2705C15.3535 10.3643 15.4036 10.4899 15.4025 10.6202C15.4014 10.7506 15.3491 10.8753 15.2569 10.9674C15.1647 11.0596 15.04 11.1119 14.9097 11.113C14.7793 11.1142 14.6537 11.0641 14.56 10.9735L13.857 10.2705C13.7664 10.1767 13.7163 10.0512 13.7174 9.9208C13.7186 9.79045 13.7709 9.66575 13.863 9.57357C13.9552 9.48139 14.0799 9.42911 14.2103 9.42798C14.3406 9.42684 14.4662 9.47695 14.56 9.56752L14.9716 9.15537C14.7959 8.8902 14.673 8.5936 14.6097 8.28185H14.0628C14.0628 8.41371 14.0104 8.54016 13.9172 8.6334C13.824 8.72664 13.6975 8.77901 13.5656 8.77901C13.4338 8.77901 13.3073 8.72664 13.2141 8.6334C13.1209 8.54016 13.0685 8.41371 13.0685 8.28185V7.28752C13.0685 7.15567 13.1209 7.02921 13.2141 6.93597C13.3073 6.84274 13.4338 6.79036 13.5656 6.79036C13.6975 6.79036 13.824 6.84274 13.9172 6.93597C14.0104 7.02921 14.0628 7.15567 14.0628 7.28752H14.6097C14.6743 6.97033 14.7986 6.67452 14.9716 6.414L14.56 6.00186C14.4662 6.09242 14.3406 6.14253 14.2103 6.1414C14.0799 6.14026 13.9552 6.08798 13.863 5.9958C13.7709 5.90362 13.7186 5.77893 13.7174 5.64857C13.7163 5.51822 13.7664 5.39263 13.857 5.29887L14.204 4.95184L14.2085 4.94687L14.2135 4.9429L14.56 4.59588C14.6537 4.50531 14.7793 4.4552 14.9097 4.45633C15.04 4.45747 15.1647 4.50975 15.2569 4.60193C15.3491 4.69411 15.4014 4.8188 15.4025 4.94916C15.4036 5.07951 15.3535 5.2051 15.263 5.29887L15.6751 5.71052ZM15.5543 7.78469C15.5543 7.38912 15.7114 7.00975 15.9911 6.73004C16.2709 6.45033 16.6502 6.29319 17.0458 6.29319C17.4414 6.29319 17.8207 6.45033 18.1004 6.73004C18.3801 7.00975 18.5373 7.38912 18.5373 7.78469C18.5373 8.18025 18.3801 8.55962 18.1004 8.83933C17.8207 9.11904 17.4414 9.27618 17.0458 9.27618C16.6502 9.27618 16.2709 9.11904 15.9911 8.83933C15.7114 8.55962 15.5543 8.18025 15.5543 7.78469Z" fill="white"/>
</svg>
