<svg width="26" height="25" viewBox="0 0 26 25" fill="none" xmlns="http://www.w3.org/2000/svg">
<path d="M12.2167 15.4551H13.7454V18.5127H12.2167V15.4551ZM16.0386 13.9263H17.5674V18.5127H16.0386V13.9263ZM8.39471 10.8688H9.92349V18.5127H8.39471V10.8688Z" fill="white"/>
<path d="M19.8606 3.98928H17.5674V3.22489C17.5674 2.81943 17.4063 2.43058 17.1196 2.14388C16.8329 1.85717 16.4441 1.69611 16.0386 1.69611H9.92351C9.51806 1.69611 9.12921 1.85717 8.8425 2.14388C8.5558 2.43058 8.39473 2.81943 8.39473 3.22489V3.98928H6.10156C5.69611 3.98928 5.30726 4.15034 5.02055 4.43704C4.73385 4.72375 4.57278 5.1126 4.57278 5.51806V21.5702C4.57278 21.9757 4.73385 22.3646 5.02055 22.6513C5.30726 22.938 5.69611 23.099 6.10156 23.099H19.8606C20.266 23.099 20.6549 22.938 20.9416 22.6513C21.2283 22.3646 21.3894 21.9757 21.3894 21.5702V5.51806C21.3894 5.1126 21.2283 4.72375 20.9416 4.43704C20.6549 4.15034 20.266 3.98928 19.8606 3.98928ZM9.92351 3.22489H16.0386V6.28245H9.92351V3.22489ZM19.8606 21.5702H6.10156V5.51806H8.39473V7.81123H17.5674V5.51806H19.8606V21.5702Z" fill="white"/>
</svg>
