<svg width="173" height="7" viewBox="0 0 173 7" fill="none" xmlns="http://www.w3.org/2000/svg">
<path d="M0.627767 3.57092C0.627767 5.04368 1.82167 6.23759 3.29443 6.23759C4.76719 6.23759 5.9611 5.04368 5.9611 3.57092C5.9611 2.09816 4.76719 0.904256 3.29443 0.904256C1.82167 0.904256 0.627767 2.09816 0.627767 3.57092ZM167.347 3.57092C167.347 5.04368 168.541 6.23759 170.013 6.23759C171.486 6.23759 172.68 5.04368 172.68 3.57092C172.68 2.09816 171.486 0.904256 170.013 0.904256C168.541 0.904256 167.347 2.09816 167.347 3.57092ZM3.29443 4.07092H170.013V3.07092H3.29443V4.07092Z" fill="white"/>
</svg>
