<svg width="127" height="82" viewBox="0 0 127 82" fill="none" xmlns="http://www.w3.org/2000/svg">
<path d="M121.36 79.0844C121.36 80.5572 122.554 81.7511 124.027 81.7511C125.5 81.7511 126.694 80.5572 126.694 79.0844C126.694 77.6117 125.5 76.4178 124.027 76.4178C122.554 76.4178 121.36 77.6117 121.36 79.0844ZM54.2698 3.18677L54.638 2.84842L54.4894 2.68677H54.2698V3.18677ZM0.265096 3.18677C0.265096 4.65953 1.459 5.85343 2.93176 5.85343C4.40452 5.85343 5.59843 4.65953 5.59843 3.18677C5.59843 1.71401 4.40452 0.520101 2.93176 0.520101C1.459 0.520101 0.265096 1.71401 0.265096 3.18677ZM124.395 78.7461L54.638 2.84842L53.9017 3.52512L123.659 79.4228L124.395 78.7461ZM54.2698 2.68677H2.93176V3.68677H54.2698V2.68677Z" fill="white"/>
</svg>
