<svg width="27" height="27" viewBox="0 0 27 27" fill="none" xmlns="http://www.w3.org/2000/svg">
<path fill-rule="evenodd" clip-rule="evenodd" d="M13.135 0.145325H14.5738V10.627C14.5738 11.6376 14.9795 12.0309 15.296 12.2166C15.3313 12.2369 15.3665 12.2557 15.4025 12.273L15.3996 12.0019V12.0005C15.3723 9.45019 15.3198 4.48258 19.2317 4.48258C24.591 4.48258 28.4202 23.2817 26.1232 25.2002C23.8256 27.1187 19.2317 25.9672 16.9347 23.6656C15.0802 21.807 15.2406 17.464 15.3557 14.347V14.3455C15.3629 14.1561 15.3701 13.9711 15.3759 13.7911C15.0936 13.7214 14.8226 13.6119 14.5709 13.4658C14.2995 13.3072 14.0571 13.1031 13.8544 12.8622C13.6407 13.1166 13.394 13.3147 13.1379 13.4651C12.8502 13.6342 12.5667 13.7325 12.3322 13.7911L12.3531 14.3462C12.4682 17.464 12.6286 21.807 10.7741 23.6656C8.47712 25.9679 3.88251 27.1187 1.58557 25.2002C-0.711374 23.2824 3.11783 4.48258 8.47712 4.48258C12.3898 4.48258 12.3365 9.45019 12.3092 12.0005C12.3083 12.0913 12.3073 12.1822 12.3063 12.273C12.3423 12.2557 12.3783 12.2369 12.4128 12.2166C12.7293 12.0309 13.135 11.6376 13.135 10.627V0.145325ZM19.2317 5.92834C18.5454 5.92834 18.1598 6.1452 17.8893 6.42495C17.5771 6.74736 17.3167 7.26638 17.134 7.99938C16.8139 9.28249 16.8276 10.7586 16.8391 11.9492C16.8405 12.1552 16.8419 12.3525 16.8419 12.539C16.8419 13.0884 16.8182 13.7462 16.7923 14.4308L16.7635 15.2462C16.7319 16.2409 16.7132 17.2818 16.7614 18.2881C16.8089 19.3001 16.9218 20.229 17.1326 21.0075C17.3462 21.794 17.6318 22.3217 17.9505 22.6412C18.8706 23.5629 20.3222 24.3075 21.8027 24.5959C23.2666 24.8814 24.4449 24.6704 25.1355 24.1427L25.1471 24.1137C25.2132 23.9292 25.2591 23.738 25.2837 23.5434C25.3679 22.9832 25.3895 22.2017 25.3327 21.2389C25.2197 19.3232 24.8097 16.8937 24.1601 14.5017C23.5098 12.1017 22.6429 9.83187 21.661 8.19673C21.1697 7.37843 20.6848 6.77989 20.2352 6.40038C19.7906 6.02448 19.4612 5.92834 19.2317 5.92834ZM8.47712 5.92834C9.1634 5.92834 9.54898 6.1452 9.81946 6.42495C10.1317 6.74736 10.3921 7.26638 10.5748 7.99938C10.8949 9.28249 10.8813 10.7586 10.8697 11.9499C10.8683 12.1559 10.8669 12.3533 10.8669 12.5398C10.8669 13.0892 10.8906 13.747 10.9165 14.4308L10.9453 15.2469C10.9769 16.2409 10.9956 17.2818 10.9482 18.2888C10.9 19.3008 10.787 20.2297 10.5762 21.0068C10.3626 21.7948 10.077 22.3225 9.75832 22.642C8.83825 23.5636 7.38656 24.3075 5.9061 24.5966C4.44218 24.8814 3.26386 24.6704 2.57326 24.1427C2.50106 23.9493 2.45134 23.7482 2.42507 23.5434C2.34091 22.9839 2.31933 22.2025 2.37616 21.2396C2.4891 19.324 2.89914 16.8937 3.54873 14.5024C4.19976 12.1017 5.06588 9.8326 6.04781 8.19745C6.53914 7.37843 7.024 6.78061 7.4736 6.4011C7.91817 6.0252 8.24764 5.92834 8.47712 5.92834Z" fill="white"/>
</svg>
