<svg width="136" height="108" viewBox="0 0 136 108" fill="none" xmlns="http://www.w3.org/2000/svg">
<path d="M130.132 3.04309C130.132 4.51585 131.326 5.70976 132.799 5.70976C134.272 5.70976 135.466 4.51585 135.466 3.04309C135.466 1.57033 134.272 0.376424 132.799 0.376424C131.326 0.376424 130.132 1.57033 130.132 3.04309ZM56.7485 104.524V105.024H56.9986L57.1486 104.824L56.7485 104.524ZM0.509298 104.524C0.509298 105.997 1.70321 107.191 3.17596 107.191C4.64872 107.191 5.84263 105.997 5.84263 104.524C5.84263 103.051 4.64872 101.858 3.17596 101.858C1.70321 101.858 0.509298 103.051 0.509298 104.524ZM132.399 2.74324L56.3484 104.224L57.1486 104.824L133.199 3.34294L132.399 2.74324ZM56.7485 104.024H3.17596V105.024H56.7485V104.024Z" fill="white"/>
</svg>
