<svg width="21" height="26" viewBox="0 0 21 26" fill="none" xmlns="http://www.w3.org/2000/svg">
<path d="M1.13194 12.907C1.75893 10.6733 2.93726 8.53946 4.66694 6.50551C6.39662 4.47157 8.07007 2.71747 9.68729 1.24322C9.90977 1.03249 10.1727 0.927124 10.4761 0.927124C10.7795 0.927124 11.0424 1.03249 11.2649 1.24322C12.8829 2.71831 14.5568 4.47283 16.2864 6.50678C18.0161 8.54072 19.194 10.6741 19.8202 12.907H17.2718C16.8066 11.6005 16.0077 10.1937 14.8751 8.68654C13.7425 7.17942 12.2761 5.57283 10.4761 3.86678C8.69625 5.57367 7.23476 7.18068 6.09162 8.68781C4.94848 10.1949 4.14472 11.6013 3.68035 12.907H1.13194ZM20.0023 17.5219C19.8202 18.5545 19.5015 19.5293 19.046 20.4464C18.5905 21.3635 18.0092 22.1904 17.3022 22.9271C16.5943 23.6647 15.8002 24.2652 14.92 24.7288C14.0398 25.1924 13.1147 25.5085 12.1447 25.6771L20.0023 17.5219ZM15.0571 15.4357H18.5157L8.68613 25.6771C8.22095 25.5717 7.77073 25.4508 7.33548 25.3142C6.90023 25.1777 6.48076 24.9931 6.07706 24.7604L15.0571 15.4357ZM8.10971 15.4357H11.5683L4.01407 23.3064C3.71068 23.0114 3.42267 22.7058 3.15004 22.3897C2.8774 22.0737 2.62943 21.7365 2.40615 21.3783L8.10971 15.4357ZM0.737549 15.4357H4.59049L1.2533 18.9127C1.09149 18.3438 0.970141 17.7693 0.889239 17.1894C0.808338 16.6095 0.757774 16.0249 0.737549 15.4357Z" fill="white"/>
</svg>
