<svg width="120" height="85" viewBox="0 0 120 85" fill="none" xmlns="http://www.w3.org/2000/svg">
<path d="M0.135823 81.5C0.135823 82.9728 1.32973 84.1667 2.80249 84.1667C4.27525 84.1667 5.46916 82.9728 5.46916 81.5C5.46916 80.0272 4.27525 78.8333 2.80249 78.8333C1.32973 78.8333 0.135823 80.0272 0.135823 81.5ZM44.8025 3V2.5H44.5029L44.3616 2.76412L44.8025 3ZM114.136 3C114.136 4.47276 115.33 5.66667 116.802 5.66667C118.275 5.66667 119.469 4.47276 119.469 3C119.469 1.52724 118.275 0.333333 116.802 0.333333C115.33 0.333333 114.136 1.52724 114.136 3ZM3.24336 81.7359L45.2434 3.23588L44.3616 2.76412L2.36163 81.2641L3.24336 81.7359ZM44.8025 3.5H116.802V2.5H44.8025V3.5Z" fill="white"/>
</svg>
